# xmcd
#
# Track frame offsets:
# 150
# 9852
# 21682
# 29813
# 39469
# 51162
# 67138
# 76493
# 85656
# 94131
# 106737
# 118178
# 125559
#
# Disc length: 1753 seconds
#
#
# Revision: 1
# Processed by: cddbd v1.5.2PL0 Copyright (c) Steve Scherf et al.
# Submitted via: FreeRIP 2.951 
#
DISCID=ae06d70d
DTITLE=The Village Singers - There's A Great Day Coming
DYEAR=1999
DGENRE=Bluegrass
TTITLE0=When I Lift Up My Head
TTITLE1=Someone To Care
TTITLE2=When I Wake Up
TTITLE3=Church In The Wildwood
TTITLE4=Far Side Banks Of Jorden
TTITLE5=On My Father's Side
TTITLE6=I'll Live In  Glory
TTITLE7=Come Unto Me
TTITLE8=Neither Do I Condemn
TTITLE9=A Heart That Will Never Break
TTITLE10=That's Why I Love To Call His Name
TTITLE11=There's A Great Day Coming
TTITLE12=In The Garden
EXTD=
EXTT0=
EXTT1=
EXTT2=
EXTT3=
EXTT4=
EXTT5=
EXTT6=
EXTT7=
EXTT8=
EXTT9=
EXTT10=
EXTT11=
EXTT12=
PLAYORDER=
